<svg width="67" height="77" viewBox="0 0 67 77" fill="none" xmlns="http://www.w3.org/2000/svg">
<path d="M2.5 20.5C2.5 9.7 7.66667 2.5 19.7222 2.5H47.2778C59.3333 2.5 64.5 9.7 64.5 20.5V56.5C64.5 67.3 59.3333 74.5 47.2778 74.5H19.7222C7.66667 74.5 2.5 67.3 2.5 56.5V20.5Z" fill="#DEA9A9" stroke="#DEA9A9" stroke-width="5" stroke-linejoin="round"/>
<path d="M2.5 20.5C2.5 9.7 7.66667 2.5 19.7222 2.5H47.2778C59.3333 2.5 64.5 9.7 64.5 20.5V56.5C64.5 67.3 59.3333 74.5 47.2778 74.5H19.7222C7.66667 74.5 2.5 67.3 2.5 56.5V34.72" stroke="#6A2239" stroke-width="5" stroke-linejoin="round"/>
<path d="M45.5 16.5584V34.5L33.9286 22.8175L21.5 33.4841V2.5H45.5" stroke="#6A2239" stroke-width="5"/>
<path d="M37.5 46.5H52.5" stroke="#6A2239" stroke-width="5" stroke-linejoin="round"/>
<path d="M23.5 58.5H52.5" stroke="#6A2239" stroke-width="5" stroke-linejoin="round"/>
</svg>
