<svg width="77" height="77" viewBox="0 0 77 77" fill="none" xmlns="http://www.w3.org/2000/svg">
<path d="M74.1667 41.9167V27.5833C74.1667 9.66667 67 2.5 49.0833 2.5H27.5833C9.66667 2.5 2.5 9.66667 2.5 27.5833V49.0833C2.5 67 9.66667 74.1667 27.5833 74.1667H41.9167" fill="#DEA9A9"/>
<path d="M74.1667 41.9167V27.5833C74.1667 9.66667 67 2.5 49.0833 2.5H27.5833C9.66667 2.5 2.5 9.66667 2.5 27.5833V49.0833C2.5 67 9.66667 74.1667 27.5833 74.1667H41.9167" stroke="#DEA9A9" stroke-width="5" stroke-linejoin="round"/>
<path d="M41.9167 2.50002L27.5833 2.50002C9.66667 2.50002 2.5 9.66669 2.5 27.5834L2.5 49.0834C2.5 67 9.66667 74.1667 27.5833 74.1667L49.0833 74.1667C67 74.1667 74.1667 67 74.1667 49.0834L74.1667 34.75" fill="#DEA9A9"/>
<path d="M41.9167 2.50002L27.5833 2.50002C9.66667 2.50002 2.5 9.66669 2.5 27.5834L2.5 49.0834C2.5 67 9.66667 74.1667 27.5833 74.1667L49.0833 74.1667C67 74.1667 74.1667 67 74.1667 49.0834L74.1667 34.75" stroke="#DEA9A9" stroke-width="5" stroke-linejoin="round"/>
<path d="M74.1667 41.9167V27.5833C74.1667 9.66667 67 2.5 49.0833 2.5H27.5833C9.66667 2.5 2.5 9.66667 2.5 27.5833V49.0833C2.5 67 9.66667 74.1667 27.5833 74.1667H41.9167" stroke="#6A2239" stroke-width="5" stroke-linejoin="round"/>
<path d="M52.8333 65.1242L58.495 70.75L70.75 56.4167" stroke="#6A2239" stroke-width="5" stroke-linejoin="round"/>
<path d="M20.5833 33.125V43.875" stroke="#6A2239" stroke-width="5" stroke-linecap="square" stroke-linejoin="round"/>
<path d="M38.5 33.125V43.875" stroke="#6A2239" stroke-width="5" stroke-linecap="square" stroke-linejoin="round"/>
<path d="M56.4167 33.125V43.875" stroke="#6A2239" stroke-width="5" stroke-linecap="square" stroke-linejoin="round"/>
</svg>
