<svg width="77" height="75" viewBox="0 0 77 75" fill="none" xmlns="http://www.w3.org/2000/svg">
<path d="M2.5 35.7829V21.2323C2.5 17.4434 5.33765 11.1202 11 9.78291L52.3899 3.17901C58.7154 1.68254 65 2.2829 65.5 8.84658V19.2829" fill="#DEA9A9"/>
<path d="M2.5 35.7829V21.2323C2.5 17.4434 5.33765 11.1202 11 9.78291L52.3899 3.17901C58.7154 1.68254 65 2.2829 65.5 8.84658V19.2829" stroke="#6A2239" stroke-width="5" stroke-linecap="round" stroke-linejoin="round"/>
<path d="M58.525 46.0367C58.8625 50.0867 62.575 53.0491 66.625 53.0491H73.75V57.5117C73.75 65.2742 67.4125 71.6117 59.65 71.6117H16.6C8.8375 71.6117 2.5 65.2742 2.5 57.5117V32.2742C2.5 24.5117 8.8375 18.1742 16.6 18.1742H59.65C67.4125 18.1742 73.75 24.5117 73.75 32.2742V37.6742H66.175C64.075 37.6742 62.1625 38.4991 60.775 39.9241C59.2 41.4616 58.3 43.6742 58.525 46.0367Z" fill="#DEA9A9" stroke="#6A2239" stroke-width="5" stroke-linecap="round"/>
<path d="M19.375 34.1117H45.625" stroke="#6A2239" stroke-width="5" stroke-linejoin="round"/>
</svg>
