<svg width="81" height="78" viewBox="0 0 81 78" fill="none" xmlns="http://www.w3.org/2000/svg">
<path d="M73.3819 48.4495C70.1969 62.1374 63.9028 67.6732 52.0728 66.5357C50.1769 66.3841 48.1294 66.0428 45.9303 65.512L39.5603 63.9953C23.749 60.2416 18.8578 52.4307 22.5736 36.5816L26.2894 20.6945C27.0478 17.4716 27.9578 14.6657 29.0953 12.3528C33.5315 3.17698 41.0769 0.712393 53.7411 3.70781L60.0732 5.18656C75.9603 8.90239 80.8136 16.7511 77.0978 32.6003L73.3819 48.4495Z" fill="#DEA9A9" stroke="#6A2239" stroke-width="5" stroke-linecap="round" stroke-linejoin="round"/>
<path d="M43.162 70.6306L37.1712 72.6022C22.1183 77.4556 14.1937 73.3985 9.30242 58.3456L4.44909 43.3685C-0.404245 28.3156 3.61492 20.3531 18.6678 15.4997L24.6587 13.5281C26.2133 13.0352 27.692 12.6181 29.0949 12.3527C27.9574 14.6656 27.0474 17.4714 26.2891 20.6943L22.5733 36.5814C18.8574 52.4306 23.7487 60.2414 39.5599 63.9952L45.9299 65.5118C48.1291 66.0427 50.1766 66.3839 52.0724 66.5356C49.7216 68.1281 46.7641 69.4552 43.162 70.6306Z" fill="#DEA9A9" stroke="#6A2239" stroke-width="5" stroke-linecap="round" stroke-linejoin="round"/>
<path d="M42.8967 25.3583L65.5001 31.4148" stroke="#6A2239" stroke-width="5" stroke-linejoin="round"/>
<path d="M39.181 40.032L53.9898 44" stroke="#6A2239" stroke-width="5" stroke-linejoin="round"/>
</svg>
