<svg width="77" height="77" viewBox="0 0 77 77" fill="none" xmlns="http://www.w3.org/2000/svg">
<path d="M49.0833 74.1667H27.5833C23.2116 74.1667 19.485 73.7367 16.3316 72.805C17.12 63.4884 26.6875 56.1425 38.3333 56.1425C49.9791 56.1425 59.5466 63.4884 60.3349 72.805C57.1816 73.7367 53.4549 74.1667 49.0833 74.1667Z" fill="#DEA9A9" stroke="#6A2239" stroke-width="5" stroke-linecap="round" stroke-linejoin="round"/>
<path fill-rule="evenodd" clip-rule="evenodd" d="M27.5833 2.5C9.66667 2.5 2.5 9.66667 2.5 27.5833V49.0833C2.5 62.6283 6.585 70.0458 16.3317 72.805C17.12 63.4883 26.6875 56.1424 38.3333 56.1424C49.9792 56.1424 59.5467 63.4883 60.335 72.805C70.0817 70.0458 74.1667 62.6283 74.1667 49.0833V27.5833C74.1667 9.66667 67 2.5 49.0833 2.5H27.5833Z" fill="#DEA9A9" stroke="#6A2239" stroke-width="5" stroke-linecap="round" stroke-linejoin="round"/>
<path d="M38.3335 46.1092C31.2385 46.1092 25.5052 40.3401 25.5052 33.2451C25.5052 26.1501 31.2385 20.4167 38.3335 20.4167C45.4285 20.4167 51.1619 26.1501 51.1619 33.2451C51.1619 40.3401 45.4285 46.1092 38.3335 46.1092Z" fill="#DEA9A9" stroke="#6A2239" stroke-width="5" stroke-linecap="round" stroke-linejoin="round"/>
</svg>
